<?xml version="1.0" encoding="UTF-8" standalone="no"?>
<!DOCTYPE svg PUBLIC "-//W3C//DTD SVG 1.1//EN" "http://www.w3.org/Graphics/SVG/1.1/DTD/svg11.dtd">
<svg width="100%" height="100%" viewBox="0 0 419 292" version="1.1" xmlns="http://www.w3.org/2000/svg" xmlns:xlink="http://www.w3.org/1999/xlink" xml:space="preserve" xmlns:serif="http://www.serif.com/" style="fill-rule:evenodd;clip-rule:evenodd;stroke-linejoin:round;stroke-miterlimit:2;">
    <g transform="matrix(0.1,0,0,-0.1,-220,1007)">
        <path d="M5275,9992C5211,9970 5119,9908 5079,9861C5061,9841 5051,9831 5054,9838C5066,9858 5050,9852 4999,9815C4939,9770 4875,9676 4861,9610C4847,9545 4847,9440 4860,9403C4875,9365 4932,9281 4948,9275C4965,9269 4982,9314 4982,9368C4982,9396 4985,9408 4993,9403C4999,9399 5001,9403 4997,9413C4994,9423 4993,9437 4997,9446C5001,9456 5013,9439 5036,9393C5069,9325 5131,9252 5205,9192L5245,9160L4347,9160C3526,9160 3446,9161 3417,9177C3395,9188 3359,9194 3304,9194C3231,9195 3218,9192 3149,9158C3109,9137 3058,9104 3036,9085C3015,9066 2990,9050 2980,9050C2971,9050 2934,9023 2899,8991C2793,8894 2750,8781 2750,8600C2750,8477 2739,8432 2676,8295C2619,8171 2605,8101 2619,8014C2647,7830 2798,7679 3030,7602C3174,7554 3300,7520 3390,7505C3501,7487 3516,7474 3570,7357C3607,7277 3648,7235 3680,7245C3712,7255 3741,7291 3734,7313C3724,7343 3760,7319 3804,7266C3840,7222 3843,7220 3896,7220L3950,7220L3950,7978C3950,8396 3953,8805 3957,8888L3963,9040L4145,9040C4246,9040 4342,9037 4359,9034C4391,9027 4402,9010 4374,9010C4366,9010 4361,9006 4365,9001C4368,8996 4366,8989 4361,8986C4350,8979 4357,8952 4397,8855L4425,8785L4425,8275L4397,8216C4382,8183 4345,8126 4314,8088C4208,7957 4183,7852 4234,7745C4263,7683 4292,7655 4349,7635C4402,7617 4451,7623 4500,7654C4522,7668 4559,7679 4600,7683C4683,7692 4733,7725 4779,7803C4814,7862 4836,7873 4878,7851C4887,7846 4915,7832 4940,7821C4965,7810 5001,7786 5021,7768C5057,7735 5145,7622 5214,7520C5235,7490 5258,7461 5266,7457C5274,7453 5280,7443 5280,7436C5280,7418 5319,7409 5342,7421C5364,7433 5393,7498 5386,7522C5384,7532 5386,7537 5391,7534C5397,7531 5398,7539 5394,7554C5391,7568 5390,7580 5393,7580C5416,7580 5480,7386 5480,7314C5480,7297 5483,7268 5486,7251C5492,7221 5495,7220 5541,7220L5590,7220L5590,9040L5910,9040L5910,9160L5593,9160L5275,9161L5302,9185L5330,9209L5307,9237C5200,9370 5162,9506 5199,9632C5212,9676 5250,9728 5250,9701C5250,9695 5256,9690 5263,9692C5279,9695 5315,9686 5418,9653C5491,9630 5505,9628 5541,9639C5579,9651 5608,9688 5595,9710C5592,9714 5613,9710 5640,9699C5698,9677 5829,9673 5848,9692C5856,9700 5860,9742 5860,9817C5860,9879 5859,9930 5857,9930C5856,9930 5837,9921 5817,9911C5757,9881 5718,9888 5532,9967C5416,10016 5359,10021 5275,9992ZM5080,9023C5116,9019 5121,9016 5105,9009C5088,9003 5088,9001 5103,9001C5113,9000 5120,8992 5120,8981C5120,8970 5124,8960 5128,8958C5133,8957 5154,8919 5176,8875L5215,8795L5220,8428C5223,8185 5222,8064 5215,8068C5210,8071 5189,8085 5170,8098C5082,8158 4901,8230 4839,8230L4810,8230L4810,8558C4810,8739 4813,8921 4816,8963L4823,9039L4929,9034C4987,9031 5055,9026 5080,9023ZM3550,8808C3569,8746 3570,8715 3570,8301C3569,7963 3566,7860 3557,7860C3550,7860 3471,7880 3380,7904C3175,7958 3104,7998 3050,8094C2999,8182 3016,8269 3100,8343C3176,8411 3322,8454 3395,8430C3414,8424 3434,8421 3440,8425C3445,8428 3450,8458 3450,8490L3450,8549L3378,8547C3277,8544 3239,8555 3196,8596C3152,8638 3131,8677 3128,8722C3125,8751 3128,8755 3150,8758C3200,8763 3255,8782 3276,8802C3295,8819 3303,8820 3335,8811C3399,8794 3510,8843 3510,8889C3510,8917 3528,8881 3550,8808Z" style="fill-rule:nonzero;"/>
    </g>
</svg>
