<?xml version="1.0" standalone="no"?>
<!DOCTYPE svg PUBLIC "-//W3C//DTD SVG 20010904//EN"
 "http://www.w3.org/TR/2001/REC-SVG-20010904/DTD/svg10.dtd">
<svg version="1.0" xmlns="http://www.w3.org/2000/svg"
 width="958.000000pt" height="1280.000000pt" viewBox="0 0 958.000000 1280.000000"
 preserveAspectRatio="xMidYMid meet">
<metadata>
Created by potrace 1.16, written by Peter Selinger 2001-2019
</metadata>
<g transform="translate(0.000000,1280.000000) scale(0.100000,-0.100000)"
fill="#000000" stroke="none">
<path d="M5275 9992 c-64 -22 -156 -84 -196 -131 -18 -20 -28 -30 -25 -23 12
20 -4 14 -55 -23 -60 -45 -124 -139 -138 -205 -14 -65 -14 -170 -1 -207 15
-38 72 -122 88 -128 17 -6 34 39 34 93 0 28 3 40 11 35 6 -4 8 0 4 10 -3 10
-4 24 0 33 4 10 16 -7 39 -53 33 -68 95 -141 169 -201 l40 -32 -898 0 c-821 0
-901 1 -930 17 -22 11 -58 17 -113 17 -73 1 -86 -2 -155 -36 -40 -21 -91 -54
-113 -73 -21 -19 -46 -35 -56 -35 -9 0 -46 -27 -81 -59 -106 -97 -149 -210
-149 -391 0 -123 -11 -168 -74 -305 -57 -124 -71 -194 -57 -281 28 -184 179
-335 411 -412 144 -48 270 -82 360 -97 111 -18 126 -31 180 -148 37 -80 78
-122 110 -112 32 10 61 46 54 68 -10 30 26 6 70 -47 36 -44 39 -46 92 -46 l54
0 0 758 c0 418 3 827 7 910 l6 152 182 0 c101 0 197 -3 214 -6 32 -7 43 -24
15 -24 -8 0 -13 -4 -9 -9 3 -5 1 -12 -4 -15 -11 -7 -4 -34 36 -131 l28 -70 0
-255 0 -255 -28 -59 c-15 -33 -52 -90 -83 -128 -106 -131 -131 -236 -80 -343
29 -62 58 -90 115 -110 53 -18 102 -12 151 19 22 14 59 25 100 29 83 9 133 42
179 120 35 59 57 70 99 48 9 -5 37 -19 62 -30 25 -11 61 -35 81 -53 36 -33
124 -146 193 -248 21 -30 44 -59 52 -63 8 -4 14 -14 14 -21 0 -18 39 -27 62
-15 22 12 51 77 44 101 -2 10 0 15 5 12 6 -3 7 5 3 20 -3 14 -4 26 -1 26 23 0
87 -194 87 -266 0 -17 3 -46 6 -63 6 -30 9 -31 55 -31 l49 0 0 910 0 910 160
0 160 0 0 60 0 60 -317 0 -318 1 27 24 28 24 -23 28 c-107 133 -145 269 -108
395 13 44 51 96 51 69 0 -6 6 -11 13 -9 16 3 52 -6 155 -39 73 -23 87 -25 123
-14 38 12 67 49 54 71 -3 4 18 0 45 -11 58 -22 189 -26 208 -7 8 8 12 50 12
125 0 62 -1 113 -3 113 -1 0 -20 -9 -40 -19 -60 -30 -99 -23 -285 56 -116 49
-173 54 -257 25z m-195 -969 c36 -4 41 -7 25 -14 -17 -6 -17 -8 -2 -8 10 -1
17 -9 17 -20 0 -11 4 -21 8 -23 5 -1 26 -39 48 -83 l39 -80 5 -367 c3 -243 2
-364 -5 -360 -5 3 -26 17 -45 30 -88 60 -269 132 -331 132 l-29 0 0 328 c0
181 3 363 6 405 l7 76 106 -5 c58 -3 126 -8 151 -11z m-1530 -215 c19 -62 20
-93 20 -507 -1 -338 -4 -441 -13 -441 -7 0 -86 20 -177 44 -205 54 -276 94
-330 190 -51 88 -34 175 50 249 76 68 222 111 295 87 19 -6 39 -9 45 -5 5 3
10 33 10 65 l0 59 -72 -2 c-101 -3 -139 8 -182 49 -44 42 -65 81 -68 126 -3
29 0 33 22 36 50 5 105 24 126 44 19 17 27 18 59 9 64 -17 175 32 175 78 0 28
18 -8 40 -81z"/>
</g>
</svg>
